<svg xmlns="http://www.w3.org/2000/svg" width="21.918" height="21.918" viewBox="0 0 21.918 21.918"><defs><style>.a{fill:#d625c2;stroke:#fff;stroke-width:2px;}.b{fill:#fff;}</style></defs><circle class="a" cx="9.959" cy="9.959" r="9.959" transform="translate(1 1)"/><path class="b" d="M2.967,12.04V9.792H1.1a.586.586,0,1,1,0-1.172H2.967V6.976A3.509,3.509,0,1,1,4.14,6.961V8.619H5.809a.586.586,0,1,1,0,1.172H4.14V12.04a.587.587,0,0,1-1.173,0ZM1.175,3.508A2.339,2.339,0,1,0,3.514,1.169,2.341,2.341,0,0,0,1.175,3.508Z" transform="translate(7.417 4.662)"/></svg>