<svg xmlns="http://www.w3.org/2000/svg" width="24.719" height="24.72" viewBox="0 0 24.719 24.72"><ellipse cx="12" cy="12" rx="12" ry="12" transform="translate(24 0) rotate(90)" fill="#ffda00"/><path d="M5.264-7a1.691,1.691,0,0,1,1.244.506A1.691,1.691,0,0,1,7.014-5.25v3.062a.426.426,0,0,1-.123.314.426.426,0,0,1-.314.123H5.264V.875A.841.841,0,0,1,5,1.49a.841.841,0,0,1-.615.26h-8.75a.841.841,0,0,1-.615-.26.841.841,0,0,1-.26-.615V-1.75H-6.549a.426.426,0,0,1-.314-.123.426.426,0,0,1-.123-.314V-5.25A1.691,1.691,0,0,1-6.48-6.494,1.691,1.691,0,0,1-5.236-7v-4.375a.841.841,0,0,1,.26-.615.841.841,0,0,1,.615-.26h7.52a.818.818,0,0,1,.6.246l1.258,1.258a.818.818,0,0,1,.246.6ZM3.514,0V-2.625h-7V0Zm0-6.125V-8.75H2.2a.426.426,0,0,1-.314-.123.426.426,0,0,1-.123-.314V-10.5h-5.25v4.375ZM4.826-4.156a.633.633,0,0,0,.465-.191.633.633,0,0,0,.191-.465.633.633,0,0,0-.191-.465.633.633,0,0,0-.465-.191.633.633,0,0,0-.465.191.633.633,0,0,0-.191.465.633.633,0,0,0,.191.465A.633.633,0,0,0,4.826-4.156Z" transform="translate(11.999 17)" fill="#171717"/><g transform="translate(-90.001 -3061)"><ellipse cx="6.61" cy="6.61" rx="6.61" ry="6.61" transform="translate(114.22 3072) rotate(90)" fill="#ffda00" stroke="#fff" stroke-width="1"/><path d="M3.264,10.157h0a5.685,5.685,0,0,1-1.323-.809A5.447,5.447,0,0,1,.909,8.23a5.158,5.158,0,0,1-.67-1.36A5.041,5.041,0,0,1,0,5.333H4.412a1.1,1.1,0,0,0,.188.615,1.2,1.2,0,0,0,.49.417L3.264,10.157Zm4.714,0h0L6.157,6.375a1.205,1.205,0,0,0,.5-.418,1.1,1.1,0,0,0,.194-.624h4.386A5.04,5.04,0,0,1,11,6.87a5.157,5.157,0,0,1-.67,1.36A5.447,5.447,0,0,1,9.3,9.347a5.685,5.685,0,0,1-1.323.809ZM6.309,4.373h0a1.284,1.284,0,0,0-1.349,0L2.381.968A5.778,5.778,0,0,1,3.928.247,5.955,5.955,0,0,1,7.06.175,5.841,5.841,0,0,1,8.44.713c.13.071.258.147.381.227Z" transform="translate(102.09 3073.472)" fill="#171717"/></g></svg>