<svg xmlns="http://www.w3.org/2000/svg" width="54" height="54" viewBox="0 0 54 54">
    <defs>
        <style>
            .cls-1{fill:#cdced9}.cls-2{clip-path:url(#clip-path)}.cls-3{fill:#585a6f}
        </style>
        <clipPath id="clip-path">
            <rect id="Rectangle_2178" width="54" height="54" class="cls-1" data-name="Rectangle 2178" rx="27"/>
        </clipPath>
    </defs>
    <g id="ic_PatientFemale_Big" transform="translate(-48 -52)">
        <rect id="Rectangle_904" width="54" height="54" class="cls-1" data-name="Rectangle 904" rx="27" transform="translate(48 52)"/>
        <g id="Mask_Group_2" class="cls-2" data-name="Mask Group 2" transform="translate(48 52)">
            <path id="Union_13" d="M0 48.938C0 45.074 3.24 35.415 5.783 32.4c1.4-1.642 8.286-4.713 8.286-4.713 1.629 1 3.664 6.242 5.557 6.517 1.924-.079 3.557-5.34 5.077-6.517 0 0 6.347 2.55 8.287 4.713 2.581 3.013 5.822 12.672 5.822 16.536zm22.927-23.667a15.542 15.542 0 0 0 3.281-5.832h.86c1.386 0 2.929-2.294 2.929-3.888s-1.542-1.944-2.929-1.944l-.156.583a10.944 10.944 0 0 1-5.976-3.616 11.742 11.742 0 0 1-9.12 4.082l-.2-1.05c-1.386 0-3.027.331-3.027 1.944s1.641 3.888 3.027 3.888h.918a15.846 15.846 0 0 0 3.281 5.832H6.5V14.929C6.5 4.1 12.264 0 19.353 0s12.831 4.1 12.889 14.929v10.342z" class="cls-3" data-name="Union 13" transform="translate(8.438 8.438)"/>
        </g>
    </g>
</svg>
