<svg xmlns="http://www.w3.org/2000/svg" width="24.499" height="24.5" viewBox="0 0 24.499 24.5"><ellipse cx="12" cy="12" rx="12" ry="12" transform="translate(24 0) rotate(90)" fill="#9d1fc3"/><path d="M5.264-7a1.691,1.691,0,0,1,1.244.506A1.691,1.691,0,0,1,7.014-5.25v3.062a.426.426,0,0,1-.123.314.426.426,0,0,1-.314.123H5.264V.875A.841.841,0,0,1,5,1.49a.841.841,0,0,1-.615.26h-8.75a.841.841,0,0,1-.615-.26.841.841,0,0,1-.26-.615V-1.75H-6.549a.426.426,0,0,1-.314-.123.426.426,0,0,1-.123-.314V-5.25A1.691,1.691,0,0,1-6.48-6.494,1.691,1.691,0,0,1-5.236-7v-4.375a.841.841,0,0,1,.26-.615.841.841,0,0,1,.615-.26h7.52a.818.818,0,0,1,.6.246l1.258,1.258a.818.818,0,0,1,.246.6ZM3.514,0V-2.625h-7V0Zm0-6.125V-8.75H2.2a.426.426,0,0,1-.314-.123.426.426,0,0,1-.123-.314V-10.5h-5.25v4.375ZM4.826-4.156a.633.633,0,0,0,.465-.191.633.633,0,0,0,.191-.465.633.633,0,0,0-.191-.465.633.633,0,0,0-.465-.191.633.633,0,0,0-.465.191.633.633,0,0,0-.191.465.633.633,0,0,0,.191.465A.633.633,0,0,0,4.826-4.156Z" transform="translate(11.999 17)" fill="#fff"/><g transform="translate(-55 -3059.999)"><circle cx="6" cy="6" r="6" transform="translate(67 3072)" fill="#9d1fc3" stroke="#fff" stroke-width="1"/><path d="M5.723,7.818H.328A.325.325,0,0,1,.044,7.33L2.372,3.253V.752A.378.378,0,0,1,2.424,0h1.2a.378.378,0,0,1,.052.752v2.5L6.007,7.33a.325.325,0,0,1-.281.489ZM1.088,6.89c-.088.123.022.277.2.277H4.8c.179,0,.293-.163.205-.277L4,5.028H2.041Z" transform="translate(70.027 3073.718)" fill="#fff"/></g></svg>