<svg xmlns="http://www.w3.org/2000/svg" width="32" height="32" viewBox="0 0 32 32">
    <defs>
        <style>
            .cls-1{fill:none}.cls-2{fill:#e67d05}
        </style>
    </defs>
    <g id="ic_RiwayatKonsultasi" transform="translate(-57 -674)">
        <path id="Rectangle_12940" d="M0 0h26v26H0z" class="cls-1" data-name="Rectangle 12940" transform="translate(60 677)"/>
        <path id="Rectangle_8499" d="M0 0h32v32H0z" class="cls-1" data-name="Rectangle 8499" transform="translate(57 674)"/>
        <path id="Path_640178" d="M0-.062a2.438 2.438 0 0 0 2.438 2.437h17.875A2.438 2.438 0 0 0 22.75-.062v-13.813H0zm16.25-9.953a.611.611 0 0 1 .609-.609h2.031a.611.611 0 0 1 .609.609v2.031a.611.611 0 0 1-.609.609h-2.031a.611.611 0 0 1-.609-.609zm0 6.5a.611.611 0 0 1 .609-.609h2.031a.611.611 0 0 1 .609.609v2.031a.611.611 0 0 1-.609.609h-2.031a.611.611 0 0 1-.609-.609zm-6.5-6.5a.611.611 0 0 1 .609-.609h2.031a.611.611 0 0 1 .609.609v2.031a.611.611 0 0 1-.609.609h-2.031a.611.611 0 0 1-.609-.609zm0 6.5a.611.611 0 0 1 .609-.609h2.031a.611.611 0 0 1 .61.608v2.031a.611.611 0 0 1-.609.609h-2.032a.611.611 0 0 1-.609-.609zm-6.5-6.5a.611.611 0 0 1 .609-.609h2.032a.611.611 0 0 1 .609.609v2.031a.611.611 0 0 1-.609.609H3.859a.611.611 0 0 1-.609-.609zm0 6.5a.611.611 0 0 1 .609-.609h2.032a.611.611 0 0 1 .609.609v2.031a.611.611 0 0 1-.609.609H3.859a.611.611 0 0 1-.609-.609zm17.063-16.86h-2.438v-2.437a.815.815 0 0 0-.812-.813h-1.626a.815.815 0 0 0-.812.813v2.437h-6.5v-2.437a.815.815 0 0 0-.812-.813H5.687a.815.815 0 0 0-.812.813v2.437H2.438A2.438 2.438 0 0 0 0-17.937v2.437h22.75v-2.437a2.438 2.438 0 0 0-2.437-2.438z" class="cls-2" data-name="Path 640178" transform="translate(62 700.625)"/>
    </g>
</svg>
