<svg id="ic-rawatinap" xmlns="http://www.w3.org/2000/svg" width="24" height="24" viewBox="0 0 24 24">
  <path id="Path_640710" data-name="Path 640710" d="M12,0A12,12,0,1,1,0,12,12,12,0,0,1,12,0Z" transform="translate(24) rotate(90)" fill="#f71193"/>
  <path id="Icon_awesome-bed" data-name="Icon awesome-bed" d="M4.548,9.461A2.067,2.067,0,1,0,2.481,7.394,2.07,2.07,0,0,0,4.548,9.461Zm9.1-3.308H7.855a.413.413,0,0,0-.413.413v3.721H1.654V4.913A.413.413,0,0,0,1.24,4.5H.413A.413.413,0,0,0,0,4.913v9.1a.413.413,0,0,0,.413.413H1.24a.413.413,0,0,0,.413-.413v-1.24h13.23v1.24a.413.413,0,0,0,.413.413h.827a.413.413,0,0,0,.413-.413V9.048A2.894,2.894,0,0,0,13.644,6.154Z" transform="translate(3.93 2.858)" fill="#fff"/>
</svg>
