<svg xmlns="http://www.w3.org/2000/svg" width="24" height="24" viewBox="0 0 24 24">
  <g id="ic-rujukan" transform="translate(-59.718 -78.644)">
    <path id="Path_640709" data-name="Path 640709" d="M12,0A12,12,0,1,1,0,12,12,12,0,0,1,12,0Z" transform="translate(59.718 78.644)" fill="#f88805"/>
    <path id="refer" d="M7.581,8.217c.051,0,.1,0,.154,0l.143,0a6.655,6.655,0,0,1,3.087.833.6.6,0,1,0,.588-1.056A7.8,7.8,0,0,0,10.2,7.4a4.11,4.11,0,1,0-4.919,0A7.859,7.859,0,0,0,.038,13.258a1.836,1.836,0,0,0,1.795,2.214H6.556a.6.6,0,0,0,0-1.209H1.833a.614.614,0,0,1-.484-.23.631.631,0,0,1-.128-.529A6.677,6.677,0,0,1,7.581,8.217ZM4.834,4.11a2.9,2.9,0,1,1,3.045,2.9l-.144,0-.141,0A2.9,2.9,0,0,1,4.834,4.11Zm10.637,7.126a1.494,1.494,0,0,1-.444,1.069L13.9,13.423a.6.6,0,0,1-.852-.857l.753-.749H10.379a1.224,1.224,0,0,0-.015,2.447.6.6,0,0,1,0,1.209,2.394,2.394,0,0,1-1.715-.715,2.438,2.438,0,0,1,1.73-4.15h3.37l-.7-.689a.6.6,0,0,1,.85-.859l1.122,1.11a1.494,1.494,0,0,1,.447,1.067Zm.178,0" transform="translate(64.019 82.706)" fill="#fff"/>
  </g>
</svg>
