<svg xmlns="http://www.w3.org/2000/svg" width="422.547" height="74.387" viewBox="0 0 422.547 74.387">
  <defs>
    <style>
      .cls-1, .cls-2 {
        fill: #383838;
      }

      .cls-2 {
        opacity: 0.29;
      }
    </style>
  </defs>
  <g id="ic_Logo_Offline" transform="translate(-5150 3110)">
    <g id="Group_2992" data-name="Group 2992" transform="translate(5256 -3110.021)">
      <g id="Group_267" data-name="Group 267" transform="translate(0 11.258)">
        <path id="Path_531" data-name="Path 531" class="cls-1" d="M154.156,76.988c0,4.074,2.609,5.326,6.161,5.431,2.612.105,5.224-.94,5.224-3.134,0-2.924-4.8-3.447-9.091-4.7-4.375-1.249-8.245-3.126-8.245-8.654,0-6.476,6.164-9.193,11.492-9.193,5.953,0,12.324,2.612,12.012,10.227H164.6c.105-3.342-2.3-4.386-5.431-4.386-1.658,0-3.969.829-3.969,2.819-.21,2.822,5.326,3.04,9.922,4.389,4.806,1.462,7.523,4.179,7.523,8.46,0,6.059-4.494,9.82-12.438,9.82-8.46,0-13.372-4.179-13.057-11.177h7Z" transform="translate(-147.138 -56.74)"/>
        <rect id="Rectangle_122" data-name="Rectangle 122" class="cls-1" width="6.686" height="22.042" transform="translate(27.073 8.867)"/>
        <rect id="Rectangle_123" data-name="Rectangle 123" class="cls-1" width="6.686" height="29.668" transform="translate(35.641 1.136)"/>
        <path id="Path_532" data-name="Path 532" class="cls-1" d="M318.779,86.55c7.521,0,11.608,4.912,11.608,11.7,0,6.581-4.074,11.387-11.7,11.387-6.791,0-11.177-4.806-11.177-11.387,0-6.791,4.074-11.7,11.282-11.7m.1,17.965c3.447,0,4.806-2.714,4.806-6.269,0-2.924-1.045-6.476-4.7-6.476-3.342,0-4.806,2.612-4.806,6.266.105,2.927,1.045,6.479,4.7,6.479" transform="translate(-263.185 -78.311)"/>
        <path id="Path_533" data-name="Path 533" class="cls-1" d="M396.31,94.469c.312-3.654,1.658-5.326,3.657-6.476a15.29,15.29,0,0,1,7.009-1.462c2.195,0,9.613.105,9.613,6.357v10.553c0,1.879,0,4.179,1.147,5.528h-7.012a11.791,11.791,0,0,1-.417-1.567c-1.255,1.255-3.87,2.09-7.208,2.09-4.386-.1-7.208-2.3-7.208-6.788,0-7,6.686-6.479,12.015-7.418,1.462-.312,2.09-.522,2.09-1.879,0-1.882-1.882-2.3-3.344-2.195-2.819.105-3.237,1.255-3.444,3.239h-6.9Zm9.193,10.448c3.447,0,4.491-1.879,4.284-5.746-.417.417-4.389.829-4.389.829-1.774.315-3.04,1.045-3.04,2.612,0,1.882,1.567,2.3,3.134,2.3" transform="translate(-327.137 -78.292)"/>
        <path id="Path_534" data-name="Path 534" class="cls-1" d="M480.19,87.185h6.266v2.09h.105a7.6,7.6,0,0,1,6.374-2.714c1.147,0,4.8.417,5.953,3.134a7.469,7.469,0,0,1,6.678-3.134c6.476,0,7.941,4.7,7.836,7.626v14.925h-6.678V95.54c0-2.711-1.255-3.549-3.04-3.549-2.927,0-3.344,2.3-3.447,4.386v12.744h-6.675V95.75c0-2.822-.94-3.762-2.924-3.762-2.612,0-3.552,1.984-3.657,3.869V109.02H480.3V87.185Z" transform="translate(-388.137 -78.318)"/>
        <path id="Path_535" data-name="Path 535" class="cls-1" d="M250.843,63.157A3.447,3.447,0,1,1,247.4,59.71h0a3.477,3.477,0,0,1,3.444,3.447" transform="translate(-217.192 -58.889)"/>
      </g>
      <path id="Path_638197" data-name="Path 638197" class="cls-1" d="M3.04-28.56h12.6a11.975,11.975,0,0,1,4.96.88,7.828,7.828,0,0,1,2.96,2.2,7.471,7.471,0,0,1,1.42,2.88,12.231,12.231,0,0,1,.38,2.88,11.987,11.987,0,0,1-.38,2.86A7.484,7.484,0,0,1,23.56-14a7.659,7.659,0,0,1-2.96,2.18,12.221,12.221,0,0,1-4.96.86H8.04V0h-5Zm5,13.52h7.32a6.521,6.521,0,0,0,1.72-.24,4.924,4.924,0,0,0,1.62-.78,4,4,0,0,0,1.2-1.44,4.941,4.941,0,0,0,.46-2.26,5.842,5.842,0,0,0-.4-2.32,3.707,3.707,0,0,0-1.08-1.46,3.843,3.843,0,0,0-1.56-.74,8.468,8.468,0,0,0-1.88-.2H8.04ZM29.08-28.56h4.56v10.6h.08a6.643,6.643,0,0,1,2.5-2.34,7.377,7.377,0,0,1,3.7-.94,7.73,7.73,0,0,1,5.36,1.76,6.736,6.736,0,0,1,1.96,5.28V0H42.68V-13a5.619,5.619,0,0,0-1.04-3.54,3.778,3.778,0,0,0-3-1.1,4.954,4.954,0,0,0-2.08.42A4.511,4.511,0,0,0,35-16.06a5.453,5.453,0,0,0-1,1.74,6.211,6.211,0,0,0-.36,2.12V0H29.08ZM69.36-4.6a2.42,2.42,0,0,0,.22,1.2.928.928,0,0,0,.86.36h.48a2.989,2.989,0,0,0,.64-.08V.04q-.24.08-.62.18T70.16.4q-.4.08-.8.12t-.68.04A4.4,4.4,0,0,1,66.36,0a2.789,2.789,0,0,1-1.2-1.96A8.065,8.065,0,0,1,61.82-.04,13.153,13.153,0,0,1,58,.56,9.367,9.367,0,0,1,55.32.18,7.033,7.033,0,0,1,53.06-.94,5.368,5.368,0,0,1,51.5-2.82a5.792,5.792,0,0,1-.58-2.66,6.143,6.143,0,0,1,.7-3.12,5.186,5.186,0,0,1,1.84-1.88,8.31,8.31,0,0,1,2.56-.98q1.42-.3,2.86-.46a23.4,23.4,0,0,1,2.36-.34,11.075,11.075,0,0,0,1.98-.34,3.032,3.032,0,0,0,1.36-.74,2.037,2.037,0,0,0,.5-1.5,2.336,2.336,0,0,0-.42-1.44,2.819,2.819,0,0,0-1.04-.86,4.493,4.493,0,0,0-1.38-.4,11.059,11.059,0,0,0-1.44-.1,5.728,5.728,0,0,0-3.16.8,3.121,3.121,0,0,0-1.4,2.48H51.68a6.864,6.864,0,0,1,.96-3.32,6.632,6.632,0,0,1,2.14-2.12,8.755,8.755,0,0,1,2.94-1.12,17.5,17.5,0,0,1,3.36-.32,14.155,14.155,0,0,1,3,.32,8.521,8.521,0,0,1,2.66,1.04,5.761,5.761,0,0,1,1.9,1.86,5.1,5.1,0,0,1,.72,2.78ZM64.8-10.36a5.535,5.535,0,0,1-2.56.82q-1.52.14-3.04.42a9.747,9.747,0,0,0-1.4.34,4.217,4.217,0,0,0-1.2.6,2.634,2.634,0,0,0-.82,1,3.419,3.419,0,0,0-.3,1.5,1.914,1.914,0,0,0,.44,1.28,3.2,3.2,0,0,0,1.06.82,4.908,4.908,0,0,0,1.36.42,8.442,8.442,0,0,0,1.34.12,7.426,7.426,0,0,0,1.64-.2,5.454,5.454,0,0,0,1.66-.68,4.37,4.37,0,0,0,1.3-1.22,3.086,3.086,0,0,0,.52-1.82Zm9.48-10.32h4.28v4h.08a4.616,4.616,0,0,1,.78-1.64,7.605,7.605,0,0,1,1.4-1.46,7.075,7.075,0,0,1,1.82-1.06,5.449,5.449,0,0,1,2.04-.4,9.893,9.893,0,0,1,1.1.04l.62.08v4.4q-.48-.08-.98-.14a8.222,8.222,0,0,0-.98-.06,5.241,5.241,0,0,0-2.18.46,5.007,5.007,0,0,0-1.78,1.36,6.665,6.665,0,0,0-1.2,2.22,9.608,9.608,0,0,0-.44,3.04V0H74.28Zm14.08,0h4.32v2.88h.12a11.709,11.709,0,0,1,1.12-1.4,6.11,6.11,0,0,1,1.34-1.08,6.777,6.777,0,0,1,1.7-.7,8.441,8.441,0,0,1,2.2-.26,7.491,7.491,0,0,1,3.5.84,4.75,4.75,0,0,1,2.3,2.6,9.2,9.2,0,0,1,2.68-2.52,7.227,7.227,0,0,1,3.8-.92,7.47,7.47,0,0,1,5.1,1.6q1.82,1.6,1.82,5.36V0H113.8V-12.08q0-1.24-.08-2.26a4.615,4.615,0,0,0-.46-1.76,2.616,2.616,0,0,0-1.14-1.14,4.507,4.507,0,0,0-2.08-.4,3.862,3.862,0,0,0-3.36,1.44,6.885,6.885,0,0,0-1.04,4.08V0h-4.56V-13.28a5.629,5.629,0,0,0-.78-3.26,3.281,3.281,0,0,0-2.86-1.1,4.186,4.186,0,0,0-1.7.36,4.237,4.237,0,0,0-1.44,1.04,5.205,5.205,0,0,0-1,1.68,6.387,6.387,0,0,0-.38,2.28V0H88.36ZM140.48-4.6a2.42,2.42,0,0,0,.22,1.2.928.928,0,0,0,.86.36h.48a2.989,2.989,0,0,0,.64-.08V.04q-.24.08-.62.18t-.78.18q-.4.08-.8.12t-.68.04A4.4,4.4,0,0,1,137.48,0a2.789,2.789,0,0,1-1.2-1.96,8.065,8.065,0,0,1-3.34,1.92,13.153,13.153,0,0,1-3.82.6,9.367,9.367,0,0,1-2.68-.38,7.033,7.033,0,0,1-2.26-1.12,5.368,5.368,0,0,1-1.56-1.88,5.792,5.792,0,0,1-.58-2.66,6.143,6.143,0,0,1,.7-3.12,5.186,5.186,0,0,1,1.84-1.88,8.31,8.31,0,0,1,2.56-.98q1.42-.3,2.86-.46a23.4,23.4,0,0,1,2.36-.34,11.075,11.075,0,0,0,1.98-.34,3.032,3.032,0,0,0,1.36-.74,2.037,2.037,0,0,0,.5-1.5,2.336,2.336,0,0,0-.42-1.44,2.819,2.819,0,0,0-1.04-.86,4.493,4.493,0,0,0-1.38-.4,11.059,11.059,0,0,0-1.44-.1,5.728,5.728,0,0,0-3.16.8,3.12,3.12,0,0,0-1.4,2.48H122.8a6.864,6.864,0,0,1,.96-3.32,6.632,6.632,0,0,1,2.14-2.12,8.755,8.755,0,0,1,2.94-1.12,17.5,17.5,0,0,1,3.36-.32,14.155,14.155,0,0,1,3,.32,8.521,8.521,0,0,1,2.66,1.04,5.761,5.761,0,0,1,1.9,1.86,5.1,5.1,0,0,1,.72,2.78Zm-4.56-5.76a5.535,5.535,0,0,1-2.56.82q-1.52.14-3.04.42a9.748,9.748,0,0,0-1.4.34,4.217,4.217,0,0,0-1.2.6,2.634,2.634,0,0,0-.82,1,3.419,3.419,0,0,0-.3,1.5,1.914,1.914,0,0,0,.44,1.28,3.2,3.2,0,0,0,1.06.82,4.908,4.908,0,0,0,1.36.42,8.442,8.442,0,0,0,1.34.12,7.426,7.426,0,0,0,1.64-.2,5.454,5.454,0,0,0,1.66-.68,4.37,4.37,0,0,0,1.3-1.22,3.086,3.086,0,0,0,.52-1.82Zm23.44-3.4a4.278,4.278,0,0,0-1.54-2.9,5.025,5.025,0,0,0-3.18-.98,6.557,6.557,0,0,0-1.88.3,4.461,4.461,0,0,0-1.84,1.12,6.279,6.279,0,0,0-1.4,2.28,10.854,10.854,0,0,0-.56,3.82,11.185,11.185,0,0,0,.3,2.56,7,7,0,0,0,.96,2.28,5.2,5.2,0,0,0,1.7,1.62,4.837,4.837,0,0,0,2.52.62,4.588,4.588,0,0,0,3.3-1.24,5.764,5.764,0,0,0,1.62-3.48h4.56a10.017,10.017,0,0,1-3.06,6.18A9.336,9.336,0,0,1,154.44.56a10.572,10.572,0,0,1-4.3-.82A9.114,9.114,0,0,1,147-2.5a9.513,9.513,0,0,1-1.94-3.38,13.206,13.206,0,0,1-.66-4.24,14.487,14.487,0,0,1,.64-4.36,9.987,9.987,0,0,1,1.92-3.54,8.984,8.984,0,0,1,3.18-2.36,10.733,10.733,0,0,1,4.46-.86,12.463,12.463,0,0,1,3.42.46,9.008,9.008,0,0,1,2.88,1.38,7.345,7.345,0,0,1,2.06,2.32,7.944,7.944,0,0,1,.96,3.32Zm6-6.92h5l5.4,15.44h.08l5.24-15.44h4.76L177.8,1.12q-.56,1.4-1.1,2.68a9.591,9.591,0,0,1-1.32,2.26,5.7,5.7,0,0,1-1.94,1.56,6.611,6.611,0,0,1-2.96.58,20.751,20.751,0,0,1-3.16-.24V4.12q.56.08,1.08.18a5.708,5.708,0,0,0,1.08.1,3.717,3.717,0,0,0,1.32-.2,2.183,2.183,0,0,0,.86-.58,3.6,3.6,0,0,0,.58-.9,8.8,8.8,0,0,0,.44-1.2l.52-1.6Z" transform="translate(130.707 42)"/>
    </g>
    <path id="Path_638198" data-name="Path 638198" class="cls-1" d="M3.359-4.008V0H1.016V-11.375H5.453a5.368,5.368,0,0,1,1.8.281,3.887,3.887,0,0,1,1.344.785,3.355,3.355,0,0,1,.84,1.2,3.86,3.86,0,0,1,.289,1.5,3.7,3.7,0,0,1-.289,1.492A3.086,3.086,0,0,1,8.6-4.984a3.863,3.863,0,0,1-1.344.723,5.9,5.9,0,0,1-1.8.254Zm0-1.9H5.453a2.661,2.661,0,0,0,.863-.125,1.579,1.579,0,0,0,.594-.348,1.355,1.355,0,0,0,.34-.535,2.044,2.044,0,0,0,.109-.68A2.294,2.294,0,0,0,7.25-8.3a1.677,1.677,0,0,0-.34-.6,1.639,1.639,0,0,0-.594-.418,2.175,2.175,0,0,0-.863-.156H3.359ZM25.714,0H23.37V-4.875H18.8V0H16.456V-11.375H18.8v4.609h4.57v-4.609h2.344ZM39.443-2.344H35.334L34.552,0H32.06l4.234-11.375h2.172L42.724,0H40.232Zm-3.477-1.9H38.81L37.381-8.5Zm17.151.078H51.251V0H48.907V-11.375h4.227a6.444,6.444,0,0,1,1.766.223,3.694,3.694,0,0,1,1.32.656,2.876,2.876,0,0,1,.828,1.074,3.577,3.577,0,0,1,.289,1.484A4.113,4.113,0,0,1,57.2-6.816a2.983,2.983,0,0,1-.406.883,2.976,2.976,0,0,1-.641.676,4.2,4.2,0,0,1-.844.5L57.766-.109V0H55.251Zm-1.867-1.9h1.891a2.457,2.457,0,0,0,.809-.121,1.553,1.553,0,0,0,.578-.344,1.439,1.439,0,0,0,.348-.531,1.935,1.935,0,0,0,.117-.691,1.719,1.719,0,0,0-.457-1.266,1.9,1.9,0,0,0-1.4-.461H51.251ZM67.3-11.375l2.922,8.25,2.906-8.25h3.078V0H73.855V-3.109l.234-5.367L71.019,0H69.41L66.347-8.469l.234,5.359V0H64.238V-11.375ZM89.936-2.344H85.827L85.045,0H82.553l4.234-11.375h2.172L93.217,0H90.725Zm-3.477-1.9H89.3L87.873-8.5Zm21.706.453a4.653,4.653,0,0,1-.391,1.594,3.7,3.7,0,0,1-.906,1.246,4.148,4.148,0,0,1-1.4.813,5.592,5.592,0,0,1-1.879.293,4.879,4.879,0,0,1-1.965-.379,4.016,4.016,0,0,1-1.477-1.09,4.952,4.952,0,0,1-.93-1.723,7.418,7.418,0,0,1-.324-2.27v-.75a7.215,7.215,0,0,1,.336-2.273,5.022,5.022,0,0,1,.949-1.727,4.119,4.119,0,0,1,1.488-1.094,4.823,4.823,0,0,1,1.953-.383,5.418,5.418,0,0,1,1.879.3,4.037,4.037,0,0,1,1.387.836,3.8,3.8,0,0,1,.891,1.273,5.328,5.328,0,0,1,.406,1.605h-2.344a3.546,3.546,0,0,0-.176-.9,1.763,1.763,0,0,0-.395-.656,1.632,1.632,0,0,0-.664-.4,3.107,3.107,0,0,0-.984-.137,1.989,1.989,0,0,0-1.77.863,4.862,4.862,0,0,0-.582,2.676V-5.3a8.2,8.2,0,0,0,.129,1.547,3.265,3.265,0,0,0,.406,1.109,1.786,1.786,0,0,0,.719.668,2.346,2.346,0,0,0,1.066.223,3.244,3.244,0,0,0,.957-.125,1.7,1.7,0,0,0,.672-.379,1.707,1.707,0,0,0,.418-.637,3.126,3.126,0,0,0,.188-.891ZM117.317,0h-2.344V-11.375h2.344Zm13.19-2.984a1.569,1.569,0,0,0-.086-.535,1.038,1.038,0,0,0-.332-.441,3.038,3.038,0,0,0-.68-.4,10.717,10.717,0,0,0-1.121-.414,13.745,13.745,0,0,1-1.473-.562,5.42,5.42,0,0,1-1.211-.738,3.293,3.293,0,0,1-.82-.98,2.68,2.68,0,0,1-.3-1.3,2.763,2.763,0,0,1,.309-1.3,2.931,2.931,0,0,1,.867-1,4.262,4.262,0,0,1,1.328-.645,5.877,5.877,0,0,1,1.691-.23,5.338,5.338,0,0,1,1.719.262,3.947,3.947,0,0,1,1.32.73,3.233,3.233,0,0,1,.844,1.113,3.33,3.33,0,0,1,.3,1.41h-2.344a1.891,1.891,0,0,0-.113-.664,1.349,1.349,0,0,0-.348-.523,1.617,1.617,0,0,0-.586-.34,2.547,2.547,0,0,0-.828-.121,2.811,2.811,0,0,0-.8.1,1.628,1.628,0,0,0-.562.281,1.183,1.183,0,0,0-.336.422,1.2,1.2,0,0,0-.113.516,1.107,1.107,0,0,0,.574.941,6.485,6.485,0,0,0,1.684.707,11.071,11.071,0,0,1,1.637.641,4.866,4.866,0,0,1,1.18.8,3.039,3.039,0,0,1,.715,1A3.114,3.114,0,0,1,132.858-3a2.947,2.947,0,0,1-.293,1.336,2.761,2.761,0,0,1-.832.988,3.94,3.94,0,0,1-1.3.617,6.254,6.254,0,0,1-1.7.215,6.565,6.565,0,0,1-1.125-.1,5.413,5.413,0,0,1-1.074-.3,4.667,4.667,0,0,1-.949-.508,3.506,3.506,0,0,1-.762-.719,3.243,3.243,0,0,1-.508-.941,3.533,3.533,0,0,1-.184-1.168h2.352a2.1,2.1,0,0,0,.164.875,1.5,1.5,0,0,0,.457.582,1.9,1.9,0,0,0,.707.324,3.873,3.873,0,0,0,.922.1,2.841,2.841,0,0,0,.789-.1,1.621,1.621,0,0,0,.555-.27,1.067,1.067,0,0,0,.324-.41A1.25,1.25,0,0,0,130.507-2.984Zm17.62-6.492h-3.484V0H142.3V-9.477h-3.437v-1.9h9.266ZM169.64-2.344h-4.109L164.75,0h-2.492l4.234-11.375h2.172L172.922,0h-2.492Zm-3.477-1.9h2.844L167.578-8.5Zm15.284.234V0H179.1V-11.375h4.438a5.368,5.368,0,0,1,1.8.281,3.887,3.887,0,0,1,1.344.785,3.355,3.355,0,0,1,.84,1.2,3.86,3.86,0,0,1,.289,1.5,3.7,3.7,0,0,1-.289,1.492,3.086,3.086,0,0,1-.84,1.133,3.863,3.863,0,0,1-1.344.723,5.9,5.9,0,0,1-1.8.254Zm0-1.9h2.094a2.661,2.661,0,0,0,.863-.125A1.579,1.579,0,0,0,185-6.379a1.355,1.355,0,0,0,.34-.535,2.044,2.044,0,0,0,.109-.68,2.293,2.293,0,0,0-.109-.707,1.677,1.677,0,0,0-.34-.6,1.639,1.639,0,0,0-.594-.418,2.175,2.175,0,0,0-.863-.156h-2.094Zm15.44,1.9V0h-2.344V-11.375h4.438a5.368,5.368,0,0,1,1.8.281,3.887,3.887,0,0,1,1.344.785,3.355,3.355,0,0,1,.84,1.2,3.86,3.86,0,0,1,.289,1.5,3.7,3.7,0,0,1-.289,1.492,3.086,3.086,0,0,1-.84,1.133,3.863,3.863,0,0,1-1.344.723,5.9,5.9,0,0,1-1.8.254Zm0-1.9h2.094a2.661,2.661,0,0,0,.863-.125,1.579,1.579,0,0,0,.594-.348,1.355,1.355,0,0,0,.34-.535,2.044,2.044,0,0,0,.109-.68,2.293,2.293,0,0,0-.109-.707,1.677,1.677,0,0,0-.34-.6,1.639,1.639,0,0,0-.594-.418,2.175,2.175,0,0,0-.863-.156h-2.094Zm15.44,4.023H217.3V0h-7.32V-11.375h2.344ZM226.261,0h-2.344V-11.375h2.344Zm16.222-3.789a4.653,4.653,0,0,1-.391,1.594,3.7,3.7,0,0,1-.906,1.246,4.148,4.148,0,0,1-1.4.813A5.592,5.592,0,0,1,237.9.156a4.879,4.879,0,0,1-1.965-.379,4.016,4.016,0,0,1-1.477-1.09,4.952,4.952,0,0,1-.93-1.723,7.418,7.418,0,0,1-.324-2.27v-.75a7.215,7.215,0,0,1,.336-2.273,5.022,5.022,0,0,1,.949-1.727,4.119,4.119,0,0,1,1.488-1.094,4.823,4.823,0,0,1,1.953-.383,5.418,5.418,0,0,1,1.879.3,4.037,4.037,0,0,1,1.387.836,3.8,3.8,0,0,1,.891,1.273,5.328,5.328,0,0,1,.406,1.605h-2.344a3.547,3.547,0,0,0-.176-.9,1.763,1.763,0,0,0-.395-.656,1.632,1.632,0,0,0-.664-.4,3.107,3.107,0,0,0-.984-.137,1.989,1.989,0,0,0-1.77.863,4.862,4.862,0,0,0-.582,2.676V-5.3a8.2,8.2,0,0,0,.129,1.547,3.265,3.265,0,0,0,.406,1.109,1.786,1.786,0,0,0,.719.668,2.346,2.346,0,0,0,1.066.223,3.244,3.244,0,0,0,.957-.125,1.7,1.7,0,0,0,.672-.379,1.707,1.707,0,0,0,.418-.637,3.127,3.127,0,0,0,.188-.891Zm13.081,1.445h-4.109L250.673,0h-2.492l4.234-11.375h2.172L258.845,0h-2.492Zm-3.477-1.9h2.844L253.5-8.5Zm20.565-5.234h-3.484V0h-2.344V-9.477h-3.437v-1.9h9.266ZM281.6,0h-2.344V-11.375H281.6Zm16.636-5.43a7.254,7.254,0,0,1-.352,2.34,5.064,5.064,0,0,1-.988,1.754A4.306,4.306,0,0,1,295.369-.23a4.871,4.871,0,0,1-1.961.387,4.871,4.871,0,0,1-1.961-.387,4.382,4.382,0,0,1-1.535-1.105,5.092,5.092,0,0,1-1-1.754,7.109,7.109,0,0,1-.359-2.34v-.5a7.19,7.19,0,0,1,.355-2.336,5.157,5.157,0,0,1,1-1.766,4.3,4.3,0,0,1,1.531-1.113,4.871,4.871,0,0,1,1.961-.387,4.871,4.871,0,0,1,1.961.387,4.3,4.3,0,0,1,1.531,1.113,5.157,5.157,0,0,1,1,1.766,7.19,7.19,0,0,1,.355,2.336Zm-2.375-.516a4.787,4.787,0,0,0-.641-2.719,2.088,2.088,0,0,0-1.828-.93,2.088,2.088,0,0,0-1.828.93,4.787,4.787,0,0,0-.641,2.719v.516a6.632,6.632,0,0,0,.168,1.574,3.518,3.518,0,0,0,.484,1.148,2.105,2.105,0,0,0,.777.7,2.264,2.264,0,0,0,1.055.238,2.063,2.063,0,0,0,1.82-.937,4.874,4.874,0,0,0,.633-2.727ZM314.309,0h-2.344L307.4-7.484V0h-2.344V-11.375H307.4l4.57,7.5v-7.5h2.336Z" transform="translate(5256 -3043.686)"/>
    <g id="Group_9573" data-name="Group 9573" transform="translate(758 -316)">
      <g id="Group_9574" data-name="Group 9574" transform="translate(4392 -2794)">
        <path id="Path_35386" data-name="Path 35386" class="cls-1" d="M148.638,133.786,109.266,93.858S101.753,93.6,93.5,93.6l37.945,39.606Z" transform="translate(-68.845 -68.919)"/>
        <path id="Path_35387" data-name="Path 35387" class="cls-1" d="M86.073,123h24L21.258,164.953H15.8Z" transform="translate(-11.634 -90.566)"/>
        <path id="Path_35388" data-name="Path 35388" class="cls-1" d="M57.563,0C.58,0,.29,0,0,.026L11.866,11.26h42.85c4.008,0,8.623.923,8.623,6.75,0,4.694-2.426,6.7-7.172,6.7H24.655l8.675,9.045H57.59A16.926,16.926,0,0,0,74.466,16.876h0A16.965,16.965,0,0,0,57.563,0Z" transform="translate(0 0)"/>
        <path id="Path_35389" data-name="Path 35389" class="cls-1" d="M142.2,127.9l-10.19,5.85L126.4,127.9Z" transform="translate(-93.07 -94.174)"/>
        <path id="Path_35390" data-name="Path 35390" class="cls-2" d="M211.583,185.211l-7.071,9.625-4.128-4.321Z" transform="translate(-147.63 -136.512)"/>
      </g>
      <path id="Path_35391" data-name="Path 35391" class="cls-1" d="M4628.142-2592.35l-8.131,8.524,2.49,2.516,17.214.7Z" transform="translate(-167.887 -148.477)"/>
    </g>
  </g>
</svg>
