<svg xmlns="http://www.w3.org/2000/svg" width="32" height="36.5" viewBox="0 0 32 36.5"><defs><style>.a{fill:none;}.b,.c,.e{fill:#1a2268;}.c{font-size:12px;font-family:Helvetica-Bold, Helvetica;font-weight:700;letter-spacing:0.05em;}.d,.e{stroke:none;}</style></defs><g transform="translate(-672 -250.5)"><g transform="translate(0 3)"><g class="a" transform="translate(670.12 235.263)"><path class="d" d="M23.052,14.5a18.01,18.01,0,0,0-10.345,0L6.484,16.361a.847.847,0,0,0-.6.812v5.716a.848.848,0,0,0,.849.848h22.3a.849.849,0,0,0,.849-.848V17.174a.848.848,0,0,0-.605-.812Z"/><path class="e" d="M 17.87957763671875 13.73725509643555 C 16.13689613342285 13.73725509643555 14.39421272277832 13.99014282226563 12.70732307434082 14.49591827392578 L 6.484153747558594 16.3613166809082 C 6.125223159790039 16.46899795532227 5.880002975463867 16.798828125 5.880002975463867 17.17360687255859 L 5.880002975463867 22.88934707641602 C 5.880002975463867 23.35738754272461 6.259292602539063 23.73724746704102 6.728532791137695 23.73724746704102 L 29.03146362304688 23.73724746704102 C 29.49985313415527 23.73724746704102 29.88000297546387 23.35738754272461 29.88000297546387 22.88934707641602 L 29.88000297546387 17.17360687255859 C 29.88000297546387 16.798828125 29.6339225769043 16.46899795532227 29.27499389648438 16.3613166809082 L 23.05183410644531 14.49591827392578 C 21.36494255065918 13.99014282226563 19.62226104736328 13.73725509643555 17.87957763671875 13.73725509643555 M 17.87957382202148 12.23725700378418 C 19.77865219116211 12.23725700378418 21.66379165649414 12.51376724243164 23.48263168334961 13.05910682678223 L 29.7056827545166 14.92447662353516 C 30.70728302001953 15.22495651245117 31.38000297546387 16.12877655029297 31.38000297546387 17.17360687255859 L 31.38000297546387 22.88934707641602 C 31.38000297546387 24.18398666381836 30.32645416259766 25.23724746704102 29.03146362304688 25.23724746704102 L 6.728532791137695 25.23724746704102 C 5.433553695678711 25.23724746704102 4.380002975463867 24.18398666381836 4.380002975463867 22.88934707641602 L 4.380002975463867 17.17360687255859 C 4.380002975463867 16.12861824035645 5.052383422851563 15.22480773925781 6.053123474121094 14.9245777130127 L 12.27663230895996 13.05907821655273 C 14.09536361694336 12.51376724243164 15.98050308227539 12.23725700378418 17.87957382202148 12.23725700378418 Z"/></g><path class="b" d="M22.88,20.021h-2v2h-2v-2h-2v-2h2v-2h2v2h2Z" transform="translate(668.12 234.979)"/></g><text class="c" transform="translate(672 284)"><tspan x="0" y="0">Ward</tspan></text></g></svg>