<svg id="ic_newtab_green" xmlns="http://www.w3.org/2000/svg" width="15.807" height="15.807" viewBox="0 0 15.807 15.807">
  <defs>
    <style>
      .cls-1 {
        fill: none;
      }

      .cls-2 {
        fill: #1f5c0c;
      }
    </style>
  </defs>
  <path id="Path_35391" data-name="Path 35391" class="cls-1" d="M0,0H15.806V15.806H0Z"/>
  <path id="Path_35392" data-name="Path 35392" class="cls-2" d="M12.879,13.537h-7.9a.661.661,0,0,1-.659-.659v-7.9a.661.661,0,0,1,.659-.659H8.269A.659.659,0,1,0,8.269,3H4.317A1.317,1.317,0,0,0,3,4.317v9.22a1.321,1.321,0,0,0,1.317,1.317h9.22a1.321,1.321,0,0,0,1.317-1.317V9.586a.659.659,0,0,0-1.317,0v3.293A.661.661,0,0,1,12.879,13.537ZM10.244,3.659a.661.661,0,0,0,.659.659h1.706L6.6,10.33a.657.657,0,1,0,.929.929l6.013-6.013V6.952a.659.659,0,0,0,1.317,0V3.659A.661.661,0,0,0,14.2,3H10.9A.661.661,0,0,0,10.244,3.659Z" transform="translate(-1.024 -1.024)"/>
</svg>
