<svg xmlns="http://www.w3.org/2000/svg" width="36" height="36" viewBox="0 0 36 36"><g transform="translate(-8 -68)"><rect width="36" height="36" rx="4" transform="translate(8 68)" fill="none"/><g transform="translate(12.5 72.5)"><path d="M0,0H27V27H0Z" fill="none"/><path d="M8.271-11a2.657,2.657,0,0,1,1.955.795,2.657,2.657,0,0,1,.795,1.955v4.812a.669.669,0,0,1-.193.494.669.669,0,0,1-.494.193H8.271V1.375a1.321,1.321,0,0,1-.408.967A1.321,1.321,0,0,1,6.9,2.75H-6.854a1.321,1.321,0,0,1-.967-.408,1.321,1.321,0,0,1-.408-.967V-2.75h-2.062a.669.669,0,0,1-.494-.193.669.669,0,0,1-.193-.494V-8.25a2.657,2.657,0,0,1,.795-1.955A2.657,2.657,0,0,1-8.229-11v-6.875a1.321,1.321,0,0,1,.408-.967,1.321,1.321,0,0,1,.967-.408H4.963a1.286,1.286,0,0,1,.945.387l1.977,1.977a1.286,1.286,0,0,1,.387.945ZM5.521,0V-4.125h-11V0Zm0-9.625V-13.75H3.459a.669.669,0,0,1-.494-.193.669.669,0,0,1-.193-.494V-16.5h-8.25v6.875ZM7.584-6.531a.994.994,0,0,0,.73-.3.994.994,0,0,0,.3-.73,1,1,0,0,0-.3-.73.994.994,0,0,0-.73-.3.994.994,0,0,0-.73.3.994.994,0,0,0-.3.73.994.994,0,0,0,.3.73A.994.994,0,0,0,7.584-6.531Z" transform="translate(13.5 21.5)" fill="#171717"/><g transform="translate(12.5 12.5)" fill="#171717" stroke="#fff" stroke-width="1"><circle cx="7.5" cy="7.5" r="7.5" stroke="none"/><circle cx="7.5" cy="7.5" r="7" fill="none"/></g><path d="M-4.819-5.647H-.737v1.012H-3.624v1.324H-1.1v1H-3.624V.1h-1.2ZM1.2-2.073H2.665L1.947-4.339Zm.074-3.582H2.638L4.677.1h-1.3L3-1.081H.88L.482.1H-.776Z" transform="translate(20.5 22.5)" fill="#fff"/></g></g></svg>