<svg xmlns="http://www.w3.org/2000/svg" width="20" height="26.521" viewBox="0 0 20 26.521">
    <defs>
        <style>
            .cls-1{fill:#fff}
        </style>
    </defs>
    <path id="ic_Prescription_white" d="M192.992 26.521A2.145 2.145 0 0 1 191 24.53V1.992A1.989 1.989 0 0 1 192.992 0h12.965v4.174a.871.871 0 0 0 .869.869H211V24.53a1.871 1.871 0 0 1-1.992 1.992zm5.191-13.121c.572.52 1.1 1.023 1.615 1.51s1.054 1 1.633 1.528a18.474 18.474 0 0 0-1.376 1.354c-.212.223-.412.434-.616.638-.094.094-.315.312-.315.419 0 .315 0 .524.315.733a.632.632 0 0 0 .354.114.694.694 0 0 0 .484-.22c.37-.37.719-.745 1.057-1.109s.677-.729 1.04-1.093l.2.2.22.219c.511.512 1.147 1.148 1.782 1.678a.589.589 0 0 0 .943 0 .511.511 0 0 0 .234-.38.716.716 0 0 0-.234-.563l-.262-.263-.007-.007-.255-.255c-.261-.261-.553-.526-.834-.782s-.58-.527-.843-.79l.21-.21c.494-.565 1.037-1.084 1.562-1.584.261-.249.506-.482.745-.722a.7.7 0 0 0 .1-1.049.6.6 0 0 0-.435-.19.9.9 0 0 0-.614.294 6.845 6.845 0 0 0-.943.839l-.026.026c-.507.508-1.031 1.033-1.546 1.651l-.047-.04c-1.011-.911-2.056-1.852-2.993-2.79h1.314a1.412 1.412 0 0 0 1.027-.556 4 4 0 0 0 .6-2.908 2.378 2.378 0 0 0-.725-1.48A2.025 2.025 0 0 0 200.173 7h-2.411c-.732 0-.943.211-.943.943v8.072c.1.418.316.629.629.629a.7.7 0 0 0 .734-.525v-2.724zm.058-2.2c.006-.024.007-2.6 0-2.621h1.827a.92.92 0 0 1 .944.839v.943c0 .549-.327.839-.944.839zm9.371-7.349a.457.457 0 0 1-.455-.456V1.2l2.643 2.644z" class="cls-1" transform="translate(-191)"/>
</svg>
