<svg xmlns="http://www.w3.org/2000/svg" width="24" height="24" viewBox="0 0 24 24"><defs><style>.a,.d,.f{fill:none;}.a{opacity:0.2;}.b{fill:#171717;}.b,.c,.d{stroke:#2a3593;stroke-width:1.5px;}.c{fill:#fff;stroke-miterlimit:10;}.d{stroke-linecap:round;stroke-linejoin:round;}.e{stroke:none;}</style></defs><g transform="translate(-18 -145)"><rect class="a" width="24" height="24" transform="translate(18 145)"/><g transform="translate(10 136.56)"><g class="b" transform="translate(28.5 25.44)"><rect class="e" width="1.5" height="4" rx="0.75"/><rect class="f" x="0.75" y="0.75" height="2.5"/></g><g class="c" transform="translate(10 21.94)"><path class="e" d="M0,0H16a4,4,0,0,1,4,4V6a0,0,0,0,1,0,0H0A0,0,0,0,1,0,6V0A0,0,0,0,1,0,0Z"/><path class="f" d="M1.5.75H16A3.25,3.25,0,0,1,19.25,4v.5a.75.75,0,0,1-.75.75H1.5A.75.75,0,0,1,.75,4.5v-3A.75.75,0,0,1,1.5.75Z"/></g><g class="c" transform="translate(10 18.44)"><path class="e" d="M0,0H3A5,5,0,0,1,8,5V5A0,0,0,0,1,8,5H0A0,0,0,0,1,0,5V0A0,0,0,0,1,0,0Z"/><path class="f" d="M1.275.75h3A2.975,2.975,0,0,1,7.25,3.725v0a.525.525,0,0,1-.525.525H1.275A.525.525,0,0,1,.75,3.725V1.275A.525.525,0,0,1,1.275.75Z"/></g><g class="b" transform="translate(10 16.44)"><rect class="e" width="1.5" height="13" rx="0.75"/><rect class="f" x="0.75" y="0.75" height="11.5"/></g><path class="d" d="M22,18.94h0a4,4,0,0,1,4-4h3" transform="translate(0 -1)"/><path class="d" d="M26.5,12.44l2.5,2.5-2.5,2.5" transform="translate(0 -1)"/><g class="b" transform="translate(23 22.44)"><rect class="e" width="1.5" height="5" rx="0.75"/><rect class="f" x="0.75" y="0.75" height="3.5"/></g></g></g></svg>