<?xml version="1.0" encoding="utf-8"?>
<!-- Generator: Adobe Illustrator 23.0.3, SVG Export Plug-In . SVG Version: 6.00 Build 0)  -->
<svg version="1.1" id="Layer_1" xmlns="http://www.w3.org/2000/svg" xmlns:xlink="http://www.w3.org/1999/xlink" x="0px" y="0px"
	 viewBox="0 0 57.7 57.7" style="enable-background:new 0 0 57.7 57.7;" xml:space="preserve">
<style type="text/css">
	.st0{clip-path:url(#SVGID_2_);fill:#FFFFFF;}
	.st1{clip-path:url(#SVGID_2_);}
	.st2{opacity:0.1;}
	.st3{fill:none;stroke:#CC0000;stroke-miterlimit:10;}
	.st4{fill:#CC0000;}
</style>
<g class="st2">
	<circle class="st3" cx="28.8" cy="28.8" r="28.3"/>
	<g>
		<path class="st4" d="M25.2,21.6c-0.7-0.8-1.7-1.4-2.9-1.8c-1-0.3-2-0.3-2.8-0.1c-0.8,0.2-1.6,0.5-2.2,1.1c-0.6,0.5-1.2,1.2-1.6,2
			c-0.4,0.8-0.8,1.6-1,2.5c-0.3,1-0.4,1.9-0.4,2.9c0,0.9,0.1,1.8,0.4,2.6c0.3,0.8,0.8,1.5,1.4,2c0.6,0.6,1.5,1,2.5,1.3
			c0.8,0.2,1.5,0.3,2.1,0.2c0.7-0.1,1.3-0.3,1.8-0.6c0.5-0.3,1-0.8,1.4-1.3c0.4-0.5,0.7-1.2,1-1.9l2.3,0.6c-0.8,2.1-2,3.6-3.6,4.5
			c-1.6,0.9-3.5,1-5.7,0.4c-1.3-0.4-2.4-0.9-3.3-1.6c-0.9-0.7-1.5-1.6-2-2.6c-0.4-1-0.7-2.1-0.7-3.2s0.1-2.4,0.5-3.7
			c0.3-1.3,0.8-2.4,1.5-3.4c0.6-1,1.4-1.8,2.3-2.5c0.9-0.6,1.9-1.1,3.1-1.3c1.1-0.2,2.4-0.1,3.7,0.2c0.9,0.2,1.7,0.6,2.5,1
			c0.7,0.5,1.4,1,1.9,1.6c0.5,0.6,0.9,1.4,1.1,2.2c0.2,0.8,0.3,1.7,0.2,2.6l-2.3-0.6C26.3,23.5,26,22.5,25.2,21.6z"/>
		<path class="st4" d="M32.5,39.4L31,20.5l2.5,0.7l0.9,16.3l0,0l9-13.6l2.4,0.6L35.1,40.1L32.5,39.4z"/>
	</g>
</g>
</svg>
