<svg xmlns="http://www.w3.org/2000/svg" width="48" height="40" viewBox="0 0 48 40"><defs><style>.a,.b{fill:#fff;}.a,.d{stroke:#1a2268;stroke-width:1.5px;}.b{stroke-miterlimit:10;}.c,.e,.h{fill:#1a2268;}.d,.g{fill:none;}.d{stroke-linecap:round;}.e{font-size:12px;font-family:Helvetica-Bold, Helvetica;font-weight:700;letter-spacing:0.05em;}.f,.h{stroke:none;}</style></defs><g transform="translate(-788 -257)"><g transform="translate(798 267.5)"><g class="a" transform="translate(10.5 -10.5)"><circle class="f" cx="8.75" cy="8.75" r="8.75"/><circle class="g" cx="8.75" cy="8.75" r="8"/></g><g class="b" transform="translate(-10 -18.036)"><path class="f" d="M 21.3053035736084 26.0359992980957 L 14.01108264923096 26.0359992980957 C 12.21291255950928 26.0359992980957 10.74999237060547 24.40983009338379 10.74999237060547 22.4109992980957 C 10.74999237060547 20.41216850280762 12.21291255950928 18.7859992980957 14.01108264923096 18.7859992980957 L 21.3053035736084 18.7859992980957 L 21.3053035736084 26.0359992980957 Z"/><path class="h" d="M 14.01108360290527 19.5359992980957 C 12.62646293640137 19.5359992980957 11.49999237060547 20.82571983337402 11.49999237060547 22.4109992980957 C 11.49999237060547 23.99627876281738 12.62646293640137 25.2859992980957 14.01108360290527 25.2859992980957 L 20.55530166625977 25.2859992980957 L 20.55530166625977 19.5359992980957 L 14.01108360290527 19.5359992980957 M 14.01108360290527 18.0359992980957 L 22.05530166625977 18.0359992980957 L 22.05530166625977 26.7859992980957 L 14.01108360290527 26.7859992980957 C 11.79596328735352 26.7859992980957 9.999992370605469 24.82708930969238 9.999992370605469 22.4109992980957 C 9.999992370605469 19.99490928649902 11.79596328735352 18.0359992980957 14.01108360290527 18.0359992980957 Z"/></g><path class="c" d="M26.373,18.036H22.022v8.75h4.351a4.375,4.375,0,0,0,0-8.75Z" transform="translate(-13.248 -18.036)"/><line class="d" x2="5.25" y2="5.25" transform="translate(16.625 -4.375)"/></g><text class="e" transform="translate(812 294)"><tspan x="-23.511" y="0">Pharma</tspan></text></g></svg>