<svg xmlns="http://www.w3.org/2000/svg" width="30" height="40.5" viewBox="0 0 30 40.5"><defs><style>.a,.c{fill:none;stroke:#1a2268;stroke-width:1.5px;}.b{fill:#fff;stroke-linejoin:round;}.b,.c{stroke-linecap:round;}.d,.f{fill:#1a2268;}.d{font-size:12px;font-family:Helvetica-Bold, Helvetica;font-weight:700;letter-spacing:0.05em;}.e,.f{stroke:none;}</style></defs><g transform="translate(-4.529 -16.934)"><g transform="translate(0 4)"><path class="a" d="M1.8,0H25.2A1.789,1.789,0,0,1,27,1.778V14.222A1.789,1.789,0,0,1,25.2,16H1.8A1.789,1.789,0,0,1,0,14.222V1.778A1.789,1.789,0,0,1,1.8,0Z" transform="translate(6.029 17.434)"/><g class="b" transform="translate(15.529 14.434)"><path class="e" d="M 8.75 2.75 L 8 2.75 L 0 2.75 L -0.75 2.75 L -0.75 2 L -0.75 0 L -0.75 -0.75 L 0 -0.75 L 8 -0.75 L 8.75 -0.75 L 8.75 0 L 8.75 1.169299960136414 L 8.75 2 L 8.75 2.75 Z"/><path class="f" d="M 0 0 L 0 2 L 8 2 L 8 1.169300079345703 L 8 0 L 0 0 M 0 -1.5 L 8 -1.5 C 8.82843017578125 -1.5 9.5 -0.8284299373626709 9.5 0 L 9.5 1.169300079345703 L 9.5 2 C 9.5 2.828429937362671 8.82843017578125 3.5 8 3.5 L 0 3.5 C -0.82843017578125 3.5 -1.5 2.828429937362671 -1.5 2 L -1.5 0 C -1.5 -0.8284299373626709 -0.82843017578125 -1.5 0 -1.5 Z"/></g><line class="c" x2="17" transform="translate(11.029 21.434)"/><line class="c" x2="17" transform="translate(11.029 25.434)"/><line class="c" x2="17" transform="translate(11.029 29.434)"/></g><text class="d" transform="translate(19.529 54.434)"><tspan x="-14.929" y="0">WCR</tspan></text></g></svg>