<svg xmlns="http://www.w3.org/2000/svg" width="24" height="24" viewBox="0 0 24 24">
  <defs>
    <style>
      .cls-1 {
        fill: #2a3593;
      }

      .cls-2 {
        fill: #fff;
      }
    </style>
  </defs>
  <g id="ic_OtherUnitEMR" transform="translate(-8.443 -8.443)">
    <ellipse id="Ellipse_944" data-name="Ellipse 944" class="cls-1" cx="12" cy="12" rx="12" ry="12" transform="translate(32.443 8.444) rotate(90)"/>
    <path id="clinic-medical-solid" class="cls-2" d="M7.6,3.03,1.826,8.123a1.223,1.223,0,0,1-.145.089V13.1a.423.423,0,0,0,.423.423h11a.423.423,0,0,0,.423-.423V8.213a1.234,1.234,0,0,1-.139-.085Zm2.537,6.9a.211.211,0,0,1-.211.211H8.448v1.48a.211.211,0,0,1-.211.211H6.968a.211.211,0,0,1-.211-.211V10.14H5.276a.211.211,0,0,1-.211-.211V8.66a.211.211,0,0,1,.211-.211h1.48V6.968a.211.211,0,0,1,.211-.211H8.237a.211.211,0,0,1,.211.211v1.48h1.48a.211.211,0,0,1,.211.211Zm4.934-3.693L8.309.262A1.053,1.053,0,0,0,6.9.262L.13,6.235a.423.423,0,0,0-.032.6l.566.63a.423.423,0,0,0,.6.032L7.323,2.148a.423.423,0,0,1,.56,0l6.061,5.346a.423.423,0,0,0,.6-.032l.566-.63A.423.423,0,0,0,15.074,6.235Z" transform="translate(12.843 12.771)"/>
  </g>
</svg>
