<svg id="ic_Resume" xmlns="http://www.w3.org/2000/svg" width="20" height="20" viewBox="0 0 20 20">
  <defs>
    <style>
      .cls-1 {
        fill: #4842ea;
      }

      .cls-2 {
        fill: #fff;
      }
    </style>
  </defs>
  <ellipse id="Ellipse_1446" data-name="Ellipse 1446" class="cls-1" cx="10" cy="10" rx="10" ry="10" transform="translate(0 0)"/>
  <path id="Path_638087" data-name="Path 638087" class="cls-2" d="M9.924,2.329A1.125,1.125,0,0,0,9.13,2H5.119A1.12,1.12,0,0,0,4,3.114v8.914a1.115,1.115,0,0,0,1.113,1.114h6.719a1.12,1.12,0,0,0,1.119-1.114V5.805a1.093,1.093,0,0,0-.33-.786Zm.229,8.585H6.8A.557.557,0,1,1,6.8,9.8h3.357a.557.557,0,1,1,0,1.114Zm0-2.228H6.8a.557.557,0,1,1,0-1.114h3.357a.557.557,0,1,1,0,1.114ZM9.035,5.343V2.836L12.112,5.9H9.594A.56.56,0,0,1,9.035,5.343Z" transform="translate(1.834 2.167)"/>
</svg>
