<svg xmlns="http://www.w3.org/2000/svg" width="21.918" height="21.918" viewBox="0 0 21.918 21.918"><defs><style>.a{fill:#263ae3;stroke:#fff;stroke-width:2px;}.b{fill:#fff;}</style></defs><circle class="a" cx="9.959" cy="9.959" r="9.959" transform="translate(1 1)"/><path class="b" d="M3.533,13.693A3.783,3.783,0,0,1,6.759,6.876L8.816,3.314l-2.108.518a.655.655,0,0,1-.779-.449.592.592,0,0,1,.431-.748L9.77,1.8a.649.649,0,0,1,.521.1.649.649,0,0,1,.344.4l.981,3.375a.593.593,0,0,1-.431.747.655.655,0,0,1-.779-.45L9.833,3.994,7.816,7.487a3.782,3.782,0,0,1-4.284,6.205ZM3.24,9.155a2.52,2.52,0,1,0,2.186-1.26A2.526,2.526,0,0,0,3.24,9.155Z" transform="translate(4.776 2.747)"/></svg>