<svg xmlns="http://www.w3.org/2000/svg" width="32" height="32" viewBox="0 0 32 32">
    <defs>
        <style>
            .cls-1{fill:none}.cls-2{fill:#c43d32}
        </style>
    </defs>
    <g id="ic_Allergies" transform="translate(-871 -66)">
        <path id="Rectangle_8499" d="M0 0h32v32H0z" class="cls-1" data-name="Rectangle 8499" transform="translate(871 66)"/>
        <path id="Subtraction_487" d="M12.973 25.963a1.834 1.834 0 0 1-1.851-1.854 1.48 1.48 0 0 1 .466-1.16 1.429 1.429 0 0 0 .345-1.042 1.865 1.865 0 0 0-.345-1.04c-.048-.047-.087-.095-.125-.135l-.03-.035a8.1 8.1 0 0 1-2.892-1.228.372.372 0 0 1-.081.006 1.438 1.438 0 0 0-1.047.458l-.009.015a2.039 2.039 0 0 0-.451 1.034 1.587 1.587 0 0 1-.581 1.153 1.8 1.8 0 0 1-2.547-2.544 1.576 1.576 0 0 1 1.155-.581 1.753 1.753 0 0 0 1.047-.459l.017-.027a2.049 2.049 0 0 0 .443-1.024.052.052 0 0 1 0-.015.044.044 0 0 0 0-.015 7.976 7.976 0 0 1-1.365-3.183l-.017-.017-.017-.015a1.607 1.607 0 0 0-1.041-.345 1.866 1.866 0 0 0-1.041.345 1.488 1.488 0 0 1-1.162.464 1.854 1.854 0 0 1 0-3.707 1.5 1.5 0 0 1 1.162.464 1.409 1.409 0 0 0 1.041.344 1.859 1.859 0 0 0 1.034-.32 8.239 8.239 0 0 1 1.365-3.4 1.786 1.786 0 0 0-.419-.668h-.009a2.039 2.039 0 0 0-1.038-.47 2.2 2.2 0 0 1-1.155-.576 1.952 1.952 0 0 1 0-2.666 1.807 1.807 0 0 1 2.547 0 1.637 1.637 0 0 1 .581 1.16 2.394 2.394 0 0 0 .574 1.04 1.721 1.721 0 0 0 .622.407 8.074 8.074 0 0 1 3.737-1.6 1.664 1.664 0 0 0 .162-.783 1.889 1.889 0 0 0-.348-1.038 1.462 1.462 0 0 1-.466-1.153A1.665 1.665 0 0 1 12.791 0a1.478 1.478 0 0 1 .182.015 1.835 1.835 0 0 1 1.858 1.851 1.5 1.5 0 0 1-.466 1.157 1.647 1.647 0 0 0-.345 1.045 1.683 1.683 0 0 0 .128.644 8.05 8.05 0 0 1 3.858 1.6 1.829 1.829 0 0 0 .642-.386 2.069 2.069 0 0 0 .466-1.04 2.174 2.174 0 0 1 .581-1.16 1.8 1.8 0 0 1 2.547 2.544 1.579 1.579 0 0 1-1.162.582 1.416 1.416 0 0 0-1.041.467v.008a3.426 3.426 0 0 0-.381.668 8.175 8.175 0 0 1 1.473 3.691 1.781 1.781 0 0 0 .764.144 23.551 23.551 0 0 0 4.054-.344 1.5 1.5 0 0 1 1.162-.464 1.854 1.854 0 0 1 0 3.707 1.488 1.488 0 0 1-1.162-.464 23.131 23.131 0 0 0-4.054-.345 1.687 1.687 0 0 0-.8.21 8.138 8.138 0 0 1-1.507 3.492 1.429 1.429 0 0 0 .459.934l.03.02h.006a2.016 2.016 0 0 0 1.005.437 1.635 1.635 0 0 1 1.162.582 1.8 1.8 0 0 1-2.55 2.541 1.563 1.563 0 0 1-.581-1.153 1.72 1.72 0 0 0-.466-1.049l-.02-.014a2.072 2.072 0 0 0-.993-.444 8.024 8.024 0 0 1-3.162 1.268l-.016.018a1.1 1.1 0 0 1-.092.105 1.611 1.611 0 0 0-.345 1.04 1.881 1.881 0 0 0 .345 1.042 1.5 1.5 0 0 1 .466 1.16 1.838 1.838 0 0 1-1.863 1.854zm-2.09-8.739c-.593 0-.976.144-1.052.393-.148.494.87 1.244 2.27 1.673a6.035 6.035 0 0 0 1.764.306c.592 0 .976-.144 1.054-.4a.431.431 0 0 0-.047-.332 4.1 4.1 0 0 0-2.223-1.345 6.275 6.275 0 0 0-1.765-.295zm-4.07-3.155a.468.468 0 0 0-.219.048.585.585 0 0 0-.291.351 2.474 2.474 0 0 0 .257 1.724c.373.771.96 1.312 1.426 1.312a.517.517 0 0 0 .216-.048c.46-.224.472-1.153.027-2.07-.368-.775-.95-1.317-1.416-1.317zm2.474-.8a.386.386 0 0 0-.219.06.427.427 0 0 0-.178.287 1.854 1.854 0 0 0 .354 1.253 1.646 1.646 0 0 0 1.122.849.392.392 0 0 0 .216-.057c.324-.21.249-.89-.169-1.549a1.641 1.641 0 0 0-1.126-.838zM11.5 9.11a3.233 3.233 0 0 0-1.775.722A3.73 3.73 0 0 0 8.655 11a.927.927 0 0 0-.08.979.726.726 0 0 0 .615.245 3.233 3.233 0 0 0 1.777-.725c.972-.72 1.485-1.684 1.142-2.148a.73.73 0 0 0-.609-.241zm-4.369.431c-.245 0-.584.375-.8.895-.25.587-.265 1.15-.034 1.25h.015a.251.251 0 0 0 .066.011c.241 0 .586-.387.8-.9.248-.584.264-1.142.034-1.243a.207.207 0 0 0-.083-.013zm4.207-3.808a3.26 3.26 0 0 0-1.782.72 3 3 0 0 0-1.24 1.67.631.631 0 0 0 .1.48.728.728 0 0 0 .608.243 3.236 3.236 0 0 0 1.776-.722 3.693 3.693 0 0 0 1.071-1.172.919.919 0 0 0 .078-.977.734.734 0 0 0-.613-.242z" class="cls-2" data-name="Subtraction 487" transform="translate(872.333 68.666)"/>
    </g>
</svg>
