<svg xmlns="http://www.w3.org/2000/svg" width="24" height="24" viewBox="0 0 24 24">
  <g id="attachment-inactive" transform="translate(9225 4210)">
    <g id="Group_14433" data-name="Group 14433" transform="translate(30)">
      <circle id="Ellipse_2798" data-name="Ellipse 2798" cx="12" cy="12" r="12" transform="translate(-9255 -4210)" fill="#cdced9"/>
      <path id="Icon_metro-attachment" data-name="Icon metro-attachment" d="M13.084,6.856l-.979-.978L7.212,10.77a2.076,2.076,0,1,0,2.936,2.936l5.873-5.872a3.46,3.46,0,0,0-4.893-4.893L4.962,9.107l-.013.013a4.826,4.826,0,0,0,6.825,6.824l.012-.013h0l4.209-4.208-.979-.978-4.209,4.208-.013.013A3.441,3.441,0,0,1,5.927,10.1l.013-.013h0L12.106,3.92a2.076,2.076,0,0,1,2.936,2.936L9.17,12.727a.692.692,0,0,1-.979-.978l4.894-4.893Z" transform="translate(-9253.535 -4207.643)" fill="#fff"/>
    </g>
  </g>
</svg>
