<svg xmlns="http://www.w3.org/2000/svg" width="54" height="54" viewBox="0 0 54 54">
    <defs>
        <style>
            .cls-1{fill:#cdced9}.cls-2{clip-path:url(#clip-path)}.cls-3{fill:#585a6f}
        </style>
        <clipPath id="clip-path">
            <rect id="Rectangle_2178" width="54" height="54" class="cls-1" data-name="Rectangle 2178" rx="27"/>
        </clipPath>
    </defs>
    <g id="ic_PatientMale_Big" transform="translate(-48 -52)">
        <rect id="Rectangle_904" width="54" height="54" class="cls-1" data-name="Rectangle 904" rx="27" transform="translate(48 52)"/>
        <g id="Mask_Group_2" class="cls-2" data-name="Mask Group 2" transform="translate(48 52)">
            <g id="Group_8152" data-name="Group 8152" transform="translate(7.103 8.657)">
                <path id="Path_35303" d="M206.06 22.032C204 19.722 197.254 17 197.254 17a9.838 9.838 0 0 1-5.63 2.062A14.911 14.911 0 0 1 185.952 17s-7.321 3.279-8.806 5.032C174.444 25.249 171 35.561 171 39.686h41.247c0-4.125-3.447-14.437-6.187-17.654z" class="cls-3" data-name="Path 35303" transform="translate(-171 10.114)"/>
                <path id="Union_10_4_" d="M51.88 465.484a19.187 19.187 0 0 1-4.48-11.418 11.37 11.37 0 1 1 22.74-.193v.193a19.069 19.069 0 0 1-4.481 11.418s-3.806 4.1-7.178 4.1-6.601-4.1-6.601-4.1zm.53-14.26l-3.469 2.457v.385a17.267 17.267 0 0 0 5.01 11.418 7 7 0 0 0 4.818 2.168 7.216 7.216 0 0 0 4.818-2.168 17.385 17.385 0 0 0 5.01-11.466 12.04 12.04 0 0 0-.337-2.6 8.326 8.326 0 0 1-8.913-.482 6.455 6.455 0 0 0-6.938.289z" class="cls-3" transform="translate(-38.242 -442.6)"/>
            </g>
        </g>
    </g>
</svg>
