<svg xmlns="http://www.w3.org/2000/svg" width="32" height="32" viewBox="0 0 32 32">
    <defs>
        <style>
            .cls-1{fill:none}.cls-2{fill:#0013b5}
        </style>
    </defs>
    <g id="ic_Routine" transform="translate(-57 -674)">
        <path id="Rectangle_12940" d="M0 0h26v26H0z" class="cls-1" data-name="Rectangle 12940" transform="translate(60 677)"/>
        <path id="Rectangle_8499" d="M0 0h32v32H0z" class="cls-1" data-name="Rectangle 8499" transform="translate(57 674)"/>
        <g id="Group_12938" data-name="Group 12938" transform="translate(60 680)">
            <path id="Path_2717" d="M18.438 1.487a4.885 4.885 0 0 0-6.844-.124L1.64 11.317a5.166 5.166 0 0 0-.373 7.341c1.991 1.991 5.1 1.866 7.341-.373l9.954-9.954a4.885 4.885 0 0 0-.124-6.844zM8.359 17.165a4.646 4.646 0 0 1-3.484 1.742 4.153 4.153 0 0 1-2.862-1.12 3.942 3.942 0 0 1-1.12-2.862 4.646 4.646 0 0 1 1.742-3.484l2.489-2.488 6.719-6.719.249-.249a3.664 3.664 0 0 1 3.111-1 .563.563 0 0 1-.124 1.12 2.7 2.7 0 0 0-2.24.622l-.124.124-5.227 5.355 4.853 4.853z" class="cls-2" data-name="Path 2717" transform="translate(.09 -.025)"/>
            <g id="Group_1690" data-name="Group 1690" transform="translate(15.659 9.543)">
                <path id="Path_2718" d="M20.968 16.168a5.31 5.31 0 0 0 .373-6.968L14 16.417a5.16 5.16 0 0 0 6.968-.249z" class="cls-2" data-name="Path 2718" transform="translate(-12.127 -7.327)"/>
                <path id="Path_2719" d="M13.994 9.194a5.31 5.31 0 0 0-.373 6.968l7.341-7.341a5.316 5.316 0 0 0-6.968.373z" class="cls-2" data-name="Path 2719" transform="translate(-12.495 -7.695)"/>
            </g>
        </g>
    </g>
</svg>
