<svg xmlns="http://www.w3.org/2000/svg" width="32" height="32" viewBox="0 0 32 32"><g transform="translate(-871 -66)"><rect width="32" height="32" transform="translate(871 66)" fill="none"/><path d="M11.037,5.977a3.071,3.071,0,0,1-2.217-.912,3.007,3.007,0,0,1-.936-2.242H14.19a3.007,3.007,0,0,1-.936,2.242A3.071,3.071,0,0,1,11.037,5.977ZM21.63-1.414a1.615,1.615,0,0,1,.443,1.109A1.529,1.529,0,0,1,21.63.779a1.492,1.492,0,0,1-1.133.468H1.577A1.492,1.492,0,0,1,.443.779,1.529,1.529,0,0,1,0-.305,1.615,1.615,0,0,1,.443-1.414l.148-.2A9.089,9.089,0,0,0,2.266-3.927,12.445,12.445,0,0,0,3.153-9a7.512,7.512,0,0,1,1.774-4.976A7.664,7.664,0,0,1,9.46-16.639v-1.035a1.515,1.515,0,0,1,.468-1.109,1.515,1.515,0,0,1,1.109-.468,1.515,1.515,0,0,1,1.109.468,1.515,1.515,0,0,1,.468,1.109v1.035a7.664,7.664,0,0,1,4.533,2.661A7.512,7.512,0,0,1,18.92-9a12.445,12.445,0,0,0,.887,5.075,9.088,9.088,0,0,0,1.675,2.316A1.468,1.468,0,0,0,21.63-1.414Z" transform="translate(875.63 88.971)" fill="#c43d32"/></g></svg>