<svg xmlns="http://www.w3.org/2000/svg" width="26" height="23.064" viewBox="0 0 26 23.064"><g transform="translate(-1.708 -2.997)"><g transform="translate(1.708 2.997)"><path d="M16.507,3A11.542,11.542,0,0,0,4.644,14.531H2.351A.634.634,0,0,0,1.9,15.62l3.574,3.587a.634.634,0,0,0,.91,0L9.961,15.62A.64.64,0,0,0,9.5,14.531H7.206a8.965,8.965,0,0,1,9.1-8.968,9.081,9.081,0,0,1,8.84,8.84,8.973,8.973,0,0,1-8.968,9.1,8.833,8.833,0,0,1-5.483-1.9,1.274,1.274,0,0,0-1.691.1H9a1.28,1.28,0,0,0,.1,1.909,11.348,11.348,0,0,0,7.072,2.447A11.542,11.542,0,0,0,27.7,14.2,11.666,11.666,0,0,0,16.507,3Z" transform="translate(-1.708 -2.997)" fill="#fff"/><path d="M12.961,8h0A.968.968,0,0,0,12,8.961v4.714a1.3,1.3,0,0,0,.628,1.1l4,2.37a.962.962,0,1,0,.986-1.653L13.922,13.3V8.948A.965.965,0,0,0,12.961,8Z" transform="translate(1.185 -1.59)" fill="#fff"/></g></g></svg>